<?xml version="1.0" encoding="iso-8859-1"?>
<!-- Generator: Adobe Illustrator 22.0.0, SVG Export Plug-In . SVG Version: 6.00 Build 0)  -->
<svg xmlns="http://www.w3.org/2000/svg" xmlns:xlink="http://www.w3.org/1999/xlink" version="1.1" id="Layer_4" x="0px" y="0px" viewBox="0 0 64 64" style="enable-background:new 0 0 64 64;" xml:space="preserve" width="512" height="512">
<g>
	<g>
		<g>
			<path style="fill:#F0BC5E;" d="M56,10H40c-0.553,0-1,0.447-1,1v22c0,1.654,1.346,3,3,3s3-1.346,3-3V23c0-0.552,0.448-1,1-1     s1,0.448,1,1v6c0,1.654,1.346,3,3,3h1v7c0,1.654,1.346,3,3,3s3-1.346,3-3V11C57,10.447,56.553,10,56,10z"/>
		</g>
	</g>
	<g>
		<path d="M60,10h-3h-1H41h-2H23V6c0-2.757-2.243-5-5-5s-5,2.243-5,5v30.306c0,0.491-0.351,0.906-0.836,0.986l-6.986,1.165    C2.757,38.86,1,40.935,1,43.389V63h34v-9h23c1.654,0,3-1.346,3-3V17.816c1.161-0.414,2-1.514,2-2.816v-2    C63,11.346,61.654,10,60,10z M30.822,38.457L27,37.82V18h12v15c0,1.654,1.346,3,3,3s3-1.346,3-3V23c0-0.551,0.449-1,1-1    s1,0.449,1,1v6c0,1.654,1.346,3,3,3h1v7c0,1.654,1.346,3,3,3s3-1.346,3-3V18h2v30H35v-4.611C35,40.935,33.243,38.86,30.822,38.457    z M23,18h2v19.486l-1.165-0.194C23.351,37.212,23,36.797,23,36.306V18z M55,12v27c0,0.552-0.449,1-1,1s-1-0.448-1-1v-8v-1v-5h-2v5    h-1c-0.551,0-1-0.449-1-1v-6c0-1.654-1.346-3-3-3s-3,1.346-3,3v10c0,0.552-0.449,1-1,1s-1-0.448-1-1V12H55z M39,12v4H23v-4H39z     M5.507,40.43l6.986-1.165C13.945,39.023,15,37.779,15,36.306V6c0-1.654,1.346-3,3-3s3,1.346,3,3v30.306    c0,1.474,1.055,2.718,2.507,2.959l6.986,1.165C31.946,40.672,33,41.916,33,43.389V45H3v-1.611C3,41.916,4.054,40.672,5.507,40.43z     M9,59v2H7V47h2v10h2V47h2v14h-2v-2H9z M15,47h2v14h-2V47z M19,47h2v14h-2V47z M23,47h2v14h-2V47z M3,47h2v14H3V47z M31,61v-9h-2    v9h-2V47h2v3h2v-3h2v14H31z M58,52H35v-2h24v1C59,51.552,58.551,52,58,52z M61,15c0,0.551-0.449,1-1,1h-3v-4h3    c0.551,0,1,0.449,1,1V15z"/>
		<rect x="17" y="5" width="2" height="2"/>
	</g>
</g>
</svg>
