<?xml version="1.0" encoding="iso-8859-1"?>
<!-- Generator: Adobe Illustrator 19.0.0, SVG Export Plug-In . SVG Version: 6.00 Build 0)  -->
<svg version="1.1" id="Layer_1" xmlns="http://www.w3.org/2000/svg" xmlns:xlink="http://www.w3.org/1999/xlink" x="0px" y="0px"
	 viewBox="0 0 496 496" style="enable-background:new 0 0 496 496;" xml:space="preserve">
<g>
	
		<rect x="58.878" y="44.001" transform="matrix(-0.2743 0.9616 -0.9616 -0.2743 162.1411 -18.3566)" style="fill:#F9BA48;" width="58.238" height="15.999"/>
	
		<rect x="87.011" y="104.005" transform="matrix(-0.2423 0.9702 -0.9702 -0.2423 257.7332 22.7206)" style="fill:#F9BA48;" width="65.968" height="15.992"/>
	
		<rect x="111.198" y="168.04" transform="matrix(-0.1963 0.9805 -0.9805 -0.1963 354.4384 61.5665)" style="fill:#F9BA48;" width="81.58" height="15.999"/>
	
		<rect x="155.278" y="259.997" transform="matrix(-0.1788 0.9839 -0.9839 -0.1788 499.4326 119.1332)" style="fill:#F9BA48;" width="89.441" height="15.992"/>
</g>
<g>
	<path style="fill:#333333;" d="M440,384h-64v-16h72V264h-24v-96H280c-13.232,0-24,10.768-24,24v103.464L100.56,14.2
		C95.728,5.448,86.496,0,76.496,0h-0.984C60.344,0,48,12.344,48,27.504c0,4.16,0.96,8.312,2.776,12.032L56,50.28v183.192
		c-9.288,3.312-16,12.112-16,22.528v16h16v-16c0-4.416,3.584-8,8-8s8,3.584,8,8v16h16v-16c0-10.416-6.712-19.216-16-22.528V83.176
		l115.624,237.672L184,321.752V368h48v16h-64c-30.872,0-56,25.128-56,56s25.128,56,56,56h272c30.872,0,56-25.128,56-56
		S470.872,384,440,384z M280,184h128v81.992l-16,3.984V200H288v95.864l-16,3.984V192C272,187.584,275.584,184,280,184z M376,273.96
		l-72,17.92V216h72V273.96z M65.16,32.528C64.4,30.976,64,29.24,64,27.504C64,21.168,69.168,16,75.504,16h0.984
		c4.184,0,8.048,2.272,10.072,5.936L244,306.816l-40.504,10.08L65.16,32.528z M200,334.248L416.984,280H432v40h-16v16h16v16H200
		V334.248z M248,368h112v16H248V368z M440,480H168c-22.056,0-40-17.944-40-40s17.944-40,40-40h272c22.056,0,40,17.944,40,40
		S462.056,480,440,480z"/>
	<path style="fill:#333333;" d="M168,408c-17.648,0-32,14.352-32,32s14.352,32,32,32s32-14.352,32-32S185.648,408,168,408z M168,456
		c-8.824,0-16-7.176-16-16s7.176-16,16-16s16,7.176,16,16S176.824,456,168,456z"/>
	<path style="fill:#333333;" d="M440,408c-17.648,0-32,14.352-32,32s14.352,32,32,32s32-14.352,32-32S457.648,408,440,408z M440,456
		c-8.824,0-16-7.176-16-16s7.176-16,16-16s16,7.176,16,16S448.824,456,440,456z"/>
	<circle style="fill:#333333;" cx="224" cy="416" r="8"/>
	<circle style="fill:#333333;" cx="256" cy="416" r="8"/>
	<circle style="fill:#333333;" cx="288" cy="416" r="8"/>
	<circle style="fill:#333333;" cx="320" cy="416" r="8"/>
	<circle style="fill:#333333;" cx="352" cy="416" r="8"/>
	<circle style="fill:#333333;" cx="384" cy="416" r="8"/>
	<circle style="fill:#333333;" cx="224" cy="464" r="8"/>
	<circle style="fill:#333333;" cx="256" cy="464" r="8"/>
	<circle style="fill:#333333;" cx="288" cy="464" r="8"/>
	<circle style="fill:#333333;" cx="320" cy="464" r="8"/>
	<circle style="fill:#333333;" cx="352" cy="464" r="8"/>
	<circle style="fill:#333333;" cx="384" cy="464" r="8"/>
	<rect x="304" y="320" style="fill:#333333;" width="96" height="16"/>
</g>
<path style="fill:#F9BA48;" d="M64,392c-35.288,0-64-28.712-64-64s28.712-64,64-64s64,28.712,64,64S99.288,392,64,392z"/>
<g>
</g>
<g>
</g>
<g>
</g>
<g>
</g>
<g>
</g>
<g>
</g>
<g>
</g>
<g>
</g>
<g>
</g>
<g>
</g>
<g>
</g>
<g>
</g>
<g>
</g>
<g>
</g>
<g>
</g>
</svg>
